<svg xmlns="http://www.w3.org/2000/svg" width="145" height="58.246" viewBox="0 0 144.99998 58.246169"><path fill="#fc0" d="M0 0h44.02v47.048H0z"/><path d="M35.904 38.71v8.342H4.162q.515-4.73 3.093-8.95Q9.833 33.85 17.44 26.85q6.12-5.658 7.507-7.67 1.87-2.782 1.87-5.5 0-3.004-1.644-4.602-1.612-1.63-4.48-1.63-2.836 0-4.51 1.694-1.677 1.694-1.935 5.626l-9.023-.895q.806-7.416 5.06-10.645Q14.537 0 20.918 0q6.992 0 10.988 3.74 3.996 3.74 3.996 9.3 0 3.166-1.16 6.043-1.128 2.845-3.61 5.977-1.643 2.078-5.93 5.977-4.285 3.9-5.445 5.18-1.13 1.277-1.838 2.492h17.982z" font-weight="700" font-size="65.73" font-family="Arial" letter-spacing="0" word-spacing="0" fill="#fff"/><g style="line-height:125%;-inkscape-font-specification:'Arial, Bold';text-align:start" font-weight="700" font-size="66.14" font-family="Arial" letter-spacing="0" word-spacing="0"><path d="M44.02 0h19.046q5.655 0 8.418.482 2.795.45 4.972 1.925 2.21 1.477 3.673 3.947 1.46 2.44 1.46 5.488 0 3.305-1.82 6.065-1.786 2.76-4.874 4.14 4.355 1.25 6.695 4.268 2.34 3.016 2.34 7.092 0 3.21-1.526 6.257-1.495 3.017-4.128 4.846-2.6 1.797-6.435 2.214-2.404.257-11.602.32H44.02V.002zm9.62 7.83v10.88h6.306q5.622 0 6.988-.16 2.47-.29 3.867-1.67 1.43-1.412 1.43-3.69 0-2.182-1.234-3.53-1.202-1.38-3.607-1.67-1.432-.16-8.224-.16H53.64zm0 18.71v12.58h8.906q5.2 0 6.598-.29 2.145-.385 3.477-1.86 1.366-1.51 1.366-4.013 0-2.118-1.04-3.594t-3.022-2.15q-1.95-.674-8.516-.674H53.64zM91.796 47.045V0h9.62v47.045h-9.62zM121.275 47.045V7.96h-14.138V0H145v7.96h-14.105v39.085h-9.62z"/></g><g style="line-height:125%;-inkscape-font-specification:'Arial, Normal';text-align:start" font-weight="400" font-size="6.806" font-family="Arial" letter-spacing="0" word-spacing="0"><path d="M.22 56.828v-4.825h1.844q.564 0 .902.148.343.145.534.452.194.302.194.635 0 .31-.17.582-.172.273-.517.44.446.13.684.438.243.31.243.73 0 .34-.148.633-.144.29-.36.448-.214.158-.54.24-.32.08-.79.08H.218zm.65-2.798h1.063q.433 0 .62-.056.25-.072.373-.24.128-.168.128-.422 0-.24-.118-.42-.117-.185-.335-.25-.217-.07-.748-.07H.87v1.458zm0 2.228h1.224q.315 0 .443-.023.225-.04.376-.132.15-.092.248-.266.098-.178.098-.408 0-.27-.14-.47-.142-.2-.393-.278-.248-.083-.718-.083H.87v1.658zM7.093 56.828v-.514q-.416.593-1.13.593-.316 0-.59-.12-.273-.117-.407-.295-.13-.18-.185-.44-.035-.176-.035-.554v-2.166h.604v1.94q0 .463.035.624.058.234.242.37.185.13.456.13.272 0 .51-.134.238-.14.336-.372.1-.237.1-.685v-1.873h.603v3.496h-.54zM8.34 55.784l.598-.092q.05.352.28.54.23.188.643.188.417 0 .618-.165.202-.168.202-.392 0-.2-.178-.316-.124-.08-.617-.2-.665-.165-.923-.283-.255-.122-.39-.333-.13-.213-.13-.47 0-.233.107-.43.11-.2.298-.333.14-.102.382-.17.245-.074.524-.074.42 0 .734.12.32.117.47.32.15.202.208.54l-.59.08q-.04-.27-.235-.42-.19-.153-.543-.153-.416 0-.594.135-.177.135-.177.316 0 .116.073.21.073.094.23.157.09.032.534.15.64.17.893.277.255.106.4.31.143.204.143.507 0 .297-.177.56-.175.26-.507.405-.332.142-.752.142-.694 0-1.06-.283-.362-.283-.463-.84zM12.022 52.684v-.68h.604v.68h-.604zm0 4.144v-3.496h.604v3.496h-.604zM13.548 56.828v-3.496h.544v.497q.392-.577 1.134-.577.322 0 .59.115.272.112.406.297.134.184.188.437.034.165.034.576v2.15h-.604V54.7q0-.36-.07-.538-.07-.18-.252-.287-.178-.108-.42-.108-.386 0-.667.24-.278.24-.278.912v1.908h-.604zM19.812 55.702l.624.076q-.147.536-.547.832-.4.297-1.02.297-.782 0-1.242-.47-.456-.475-.456-1.327 0-.883.463-1.37.463-.487 1.2-.487.715 0 1.168.477.453.478.453 1.343 0 .053-.003.158h-2.657q.034.577.332.883.3.306.745.306.332 0 .567-.172.235-.17.372-.546zm-1.983-.958h1.99q-.04-.44-.23-.66-.288-.344-.747-.344-.416 0-.702.274-.28.273-.31.73zM20.956 55.784l.597-.092q.05.352.28.54.23.188.643.188.416 0 .617-.165.202-.168.202-.392 0-.2-.178-.316-.124-.08-.617-.2-.665-.165-.923-.283-.255-.122-.39-.333-.13-.213-.13-.47 0-.233.107-.43.11-.2.3-.333.14-.102.38-.17.246-.074.525-.074.418 0 .733.12.32.117.47.32.15.202.208.54l-.59.08q-.04-.27-.234-.42-.19-.153-.544-.153-.416 0-.594.135-.177.135-.177.316 0 .116.074.21.074.094.232.157.09.032.533.15.64.17.892.277.255.106.4.31.143.204.143.507 0 .297-.177.56-.175.26-.507.405-.33.142-.75.142-.695 0-1.06-.283-.363-.283-.464-.84zM24.392 55.784l.597-.092q.05.352.277.54.232.188.645.188.416 0 .617-.165.2-.168.2-.392 0-.2-.178-.316-.124-.08-.617-.2-.664-.165-.922-.283-.255-.122-.39-.333-.13-.213-.13-.47 0-.233.107-.43.11-.2.298-.333.14-.102.383-.17.246-.074.524-.074.42 0 .735.12.318.117.47.32.15.202.207.54l-.59.08q-.04-.27-.236-.42-.19-.153-.542-.153-.416 0-.594.135t-.178.316q0 .116.074.21.074.094.232.157.09.032.533.15.64.17.892.277.255.106.4.31.144.204.144.507 0 .297-.177.56-.174.26-.506.405-.333.142-.752.142-.694 0-1.06-.283-.363-.283-.463-.84zM30.163 56.828v-4.825h.65v4.825h-.65zM31.88 56.828v-3.496h.544v.497q.392-.577 1.134-.577.322 0 .59.115.272.112.406.297.135.184.188.437.034.165.034.576v2.15h-.604V54.7q0-.36-.07-.538-.07-.18-.252-.287-.178-.108-.42-.108-.386 0-.667.24-.28.24-.28.912v1.908h-.603zM37.024 56.298l.087.523q-.254.054-.455.054-.33 0-.51-.102-.182-.102-.255-.267-.074-.168-.074-.7v-2.012h-.443v-.46h.443v-.866l.6-.356v1.222h.608v.46h-.608v2.045q0 .253.03.326.034.072.105.115.074.043.21.043.1 0 .264-.022zM40.05 55.702l.624.076q-.148.536-.547.832-.4.297-1.02.297-.782 0-1.24-.47-.458-.475-.458-1.327 0-.883.462-1.37.463-.487 1.202-.487.714 0 1.167.477.454.478.454 1.343 0 .053-.003.158h-2.656q.033.577.332.883.3.306.745.306.333 0 .568-.172.235-.17.372-.546zm-1.983-.958h1.99q-.04-.44-.23-.66-.287-.344-.747-.344-.416 0-.7.274-.283.273-.313.73zM41.422 56.828v-4.825h.604v4.825h-.604zM42.952 56.828v-4.825h.604v4.825h-.604zM44.5 52.684v-.68h.603v.68H44.5zm0 4.144v-3.496h.603v3.496H44.5zM45.915 57.117l.587.086q.037.266.204.388.225.166.614.166.42 0 .648-.165.228-.163.31-.46.045-.18.042-.76-.396.458-.986.458-.735 0-1.138-.52-.402-.52-.402-1.248 0-.5.184-.92.185-.426.534-.656.352-.23.825-.23.63 0 1.04.5v-.422h.557v3.022q0 .816-.17 1.155-.17.34-.538.54-.365.196-.902.196-.638 0-1.03-.283-.393-.28-.38-.846zm.5-2.1q0 .688.278 1.004.278.317.698.317.417 0 .7-.312.28-.316.28-.988 0-.642-.29-.967-.29-.326-.7-.326-.402 0-.684.322-.282.32-.282.95zM52.29 55.702l.623.076q-.147.536-.547.832-.4.297-1.02.297-.78 0-1.24-.47-.457-.475-.457-1.327 0-.883.462-1.37.463-.487 1.2-.487.716 0 1.168.477.453.478.453 1.343 0 .053-.003.158h-2.657q.034.577.332.883.3.306.745.306.332 0 .567-.172.235-.17.373-.546zm-1.984-.958h1.99q-.04-.44-.228-.66-.29-.344-.748-.344-.416 0-.702.274-.28.273-.312.73zM53.675 56.828v-3.496h.543v.497q.393-.577 1.134-.577.322 0 .59.115.273.112.407.297.133.184.187.437.033.165.033.576v2.15h-.604V54.7q0-.36-.07-.538-.07-.18-.252-.287-.178-.108-.42-.108-.385 0-.667.24-.278.24-.278.912v1.908h-.605zM59.825 55.547l.594.076q-.1.602-.5.945-.4.34-.984.34-.732 0-1.178-.47-.443-.47-.443-1.345 0-.566.19-.99.193-.425.582-.636.392-.214.852-.214.58 0 .948.29.37.286.473.816l-.586.088q-.084-.352-.298-.53-.212-.178-.514-.178-.456 0-.74.323-.286.32-.286 1.014 0 .704.275 1.023.276.32.72.32.355 0 .593-.214t.302-.66zM63.374 55.702l.624.076q-.147.536-.546.832-.4.297-1.02.297-.782 0-1.242-.47-.456-.475-.456-1.327 0-.883.463-1.37.463-.487 1.2-.487.716 0 1.17.477.452.478.452 1.343 0 .053-.005.158h-2.657q.034.577.332.883.3.306.745.306.332 0 .567-.172.235-.17.373-.546zm-1.982-.958h1.99q-.04-.44-.23-.66-.288-.344-.747-.344-.416 0-.7.274-.283.273-.313.73zM66.843 58.246V51.92h.527v6.326h-.527zM70.4 56.828v-4.825h.98l1.164 3.416q.16.476.235.713.083-.263.26-.773l1.178-3.357h.876v4.825h-.628v-4.04l-1.43 4.04h-.586l-1.423-4.108v4.108H70.4zM75.848 55.08q0-.97.55-1.438.46-.39 1.12-.39.736 0 1.202.475.467.47.467 1.304 0 .675-.208 1.064-.206.385-.602.6-.392.213-.86.213-.747 0-1.21-.47-.46-.472-.46-1.357zm.62 0q0 .67.3 1.007.298.332.75.332.45 0 .75-.336.298-.336.298-1.024 0-.648-.302-.98-.298-.336-.745-.336-.454 0-.752.332-.3.333-.3 1.004zM80.455 56.828h-.56v-4.825h.604v1.72q.38-.47.975-.47.33 0 .62.132.296.128.484.365.19.234.297.566.108.333.108.71 0 .9-.453 1.39-.453.49-1.087.49-.63 0-.99-.516v.438zm-.007-1.774q0 .628.174.908.286.457.772.457.396 0 .684-.336.29-.34.29-1.007 0-.685-.28-1.01-.275-.327-.667-.327-.395 0-.684.34-.288.335-.288.974zM83.726 52.684v-.68h.604v.68h-.604zm0 4.144v-3.496h.604v3.496h-.604zM85.24 56.828v-4.825h.603v4.825h-.604zM89.222 55.702l.624.076q-.148.536-.547.832-.4.297-1.02.297-.783 0-1.242-.47-.457-.475-.457-1.327 0-.883.464-1.37.463-.487 1.2-.487.716 0 1.17.477.452.478.452 1.343 0 .053-.003.158h-2.657q.033.577.332.883.298.306.745.306.332 0 .567-.172.235-.17.372-.546zm-1.983-.958h1.988q-.04-.44-.228-.66-.288-.344-.748-.344-.416 0-.7.274-.283.273-.313.73zM91.674 56.828l1.89-4.825h.7l2.013 4.825h-.74l-.575-1.462h-2.056l-.54 1.462h-.692zm1.42-1.982h1.667l-.512-1.336q-.235-.61-.35-1-.093.464-.264.92l-.54 1.416zM96.727 58.167v-4.835h.55v.454q.195-.266.44-.398.245-.135.594-.135.457 0 .806.23.35.23.527.652.177.418.177.92 0 .535-.198.966-.194.43-.57.66-.372.227-.785.227-.302 0-.543-.125-.24-.126-.393-.316v1.7h-.603zm.547-3.067q0 .674.278.997.28.322.675.322.402 0 .688-.333.288-.336.288-1.037 0-.668-.282-1-.277-.333-.666-.333-.386 0-.685.356-.296.352-.296 1.027zM100.552 58.167v-4.835h.55v.454q.195-.266.44-.398.244-.135.593-.135.457 0 .806.23.35.23.527.652.178.418.178.92 0 .535-.198.966-.194.43-.57.66-.373.227-.785.227-.302 0-.544-.125-.238-.126-.392-.316v1.7h-.604zm.547-3.067q0 .674.277.997.28.322.675.322.402 0 .687-.333.288-.336.288-1.037 0-.668-.282-1-.278-.333-.668-.333-.385 0-.684.356-.295.352-.295 1.027zM104.135 55.784l.597-.092q.05.352.28.54.23.188.643.188.416 0 .617-.165.202-.168.202-.392 0-.2-.178-.316-.124-.08-.618-.2-.664-.165-.922-.283-.255-.122-.39-.333-.13-.213-.13-.47 0-.233.107-.43.11-.2.3-.333.14-.102.38-.17.246-.074.525-.074.42 0 .734.12.32.117.47.32.15.202.208.54l-.59.08q-.04-.27-.235-.42-.192-.153-.544-.153-.415 0-.593.135t-.178.316q0 .116.073.21.074.094.232.157.09.032.533.15.64.17.893.277.256.106.4.31.144.204.144.507 0 .297-.178.56-.174.26-.506.405-.332.142-.752.142-.694 0-1.06-.283-.362-.283-.463-.84zM109.896 58.246V51.92h.526v6.326h-.526zM116.982 55.136l.65.16q-.204.788-.738 1.202-.53.412-1.298.412-.795 0-1.295-.316-.496-.32-.757-.922-.26-.602-.26-1.293 0-.755.293-1.314.295-.563.836-.853.543-.293 1.194-.293.738 0 1.24.37.505.368.703 1.036l-.642.148q-.17-.527-.497-.767-.324-.24-.817-.24-.567 0-.95.266-.38.267-.533.718-.155.448-.155.926 0 .615.18 1.076.186.457.572.684.386.228.835.228.547 0 .926-.31.38-.31.514-.918zM118.136 55.08q0-.97.55-1.438.46-.39 1.12-.39.735 0 1.202.475.466.47.466 1.304 0 .675-.208 1.064-.205.385-.6.6-.393.213-.86.213-.748 0-1.21-.47-.46-.472-.46-1.357zm.62 0q0 .67.3 1.007.298.332.75.332.45 0 .75-.336.297-.336.297-1.024 0-.648-.302-.98-.297-.336-.743-.336-.453 0-.752.332-.3.333-.3 1.004zM122.185 56.828v-3.496h.544v.497q.39-.577 1.133-.577.322 0 .59.115.272.112.406.297.133.184.187.437.034.165.034.576v2.15h-.603V54.7q0-.36-.07-.538-.07-.18-.252-.287-.178-.108-.42-.108-.386 0-.667.24-.28.24-.28.912v1.908h-.603zM125.77 55.784l.596-.092q.05.352.278.54.232.188.644.188.416 0 .618-.165.2-.168.2-.392 0-.2-.177-.316-.125-.08-.618-.2-.664-.165-.923-.283-.256-.122-.39-.333-.13-.213-.13-.47 0-.233.107-.43.11-.2.298-.333.14-.102.383-.17.245-.074.523-.074.42 0 .736.12.318.117.47.32.15.202.207.54l-.59.08q-.04-.27-.235-.42-.19-.153-.543-.153-.416 0-.594.135-.177.135-.177.316 0 .116.074.21.074.094.23.157.092.032.535.15.64.17.892.277.255.106.4.31.144.204.144.507 0 .297-.178.56-.175.26-.507.405-.332.142-.75.142-.696 0-1.06-.283-.364-.283-.464-.84zM131.78 56.828v-.514q-.415.593-1.13.593-.315 0-.59-.12-.272-.117-.406-.295-.13-.18-.185-.44-.038-.176-.038-.554v-2.166h.604v1.94q0 .463.037.624.057.234.242.37.184.13.456.13.273 0 .51-.134.24-.14.336-.372.1-.237.1-.685v-1.873h.605v3.496h-.54zM133.257 56.828v-4.825h.604v4.825h-.603zM136.12 56.298l.086.523q-.255.054-.456.054-.33 0-.51-.102t-.255-.267q-.074-.168-.074-.7v-2.012h-.442v-.46h.443v-.866l.602-.356v1.222h.607v.46h-.608v2.045q0 .253.03.326.033.072.104.115.074.043.208.043.1 0 .265-.022zM136.71 52.684v-.68h.603v.68h-.604zm0 4.144v-3.496h.603v3.496h-.604zM138.236 56.828v-3.496h.543v.497q.392-.577 1.133-.577.323 0 .59.115.273.112.407.297.134.184.188.437.033.165.033.576v2.15h-.603V54.7q0-.36-.07-.538-.07-.18-.252-.287-.177-.108-.42-.108-.385 0-.667.24-.278.24-.278.912v1.908h-.604zM141.95 57.117l.587.086q.037.266.205.388.225.166.614.166.42 0 .647-.165.228-.163.31-.46.046-.18.043-.76-.396.458-.987.458-.736 0-1.138-.52-.403-.52-.403-1.248 0-.5.184-.92.184-.426.533-.656.352-.23.826-.23.63 0 1.04.5v-.422h.557v3.022q0 .816-.172 1.155-.167.34-.536.54-.366.196-.903.196-.638 0-1.03-.283-.393-.28-.38-.846zm.5-2.1q0 .688.278 1.004.28.317.698.317.416 0 .698-.312.282-.316.282-.988 0-.642-.292-.967-.29-.326-.698-.326-.402 0-.684.322-.282.32-.282.95z"/></g></svg>